<svg xmlns="http://www.w3.org/2000/svg" viewBox="0 0 549 452.49"><defs><style>.cls-1{fill:#c5c6c9;}</style></defs><title>imac</title><g id="Capa_2" data-name="Capa 2"><g id="Capa_6" data-name="Capa 6"><path class="cls-1" d="M45.55,248.78s-.45,53.79-7.5,57.66c0,0-4.23,4.56-13.52,8.55,0,0-5.36,2.81-6.12,7.9l3.14,2.6H179.46a4.88,4.88,0,0,0,2.1-3.23c.36-2.89-3.41-5.33-5.5-6.71-.72-.47-2.54-1.32-6.17-3-4.28-2-5.8-2.63-7-4.36a8.25,8.25,0,0,1-1.29-3.67c-1.29-9.62-3.71-19.12-4.16-28.81-.29-6.26-.83-15.37-1.87-26.84Z" transform="translate(172 127)"/></g></g><g id="Capa_5" data-name="Capa 5"><path class="cls-1" d="M-172,198.93v37.71s0,10.86,13.71,12.29H365.43s9.64-1.79,11.57-11v-39Z" transform="translate(172 127)"/></g><g id="Capa_3" data-name="Capa 3"><path d="M376.25-115.75,377,199.47l-549,.32V-113.28C-172-127-158.5-127-158.5-127H362.22C374.22-127,376.25-115.75,376.25-115.75Z" transform="translate(172 127)"/></g></svg>